<svg width="133" height="48" viewBox="0 0 133 48" fill="none" xmlns="http://www.w3.org/2000/svg">
<path d="M4.048 29V14.488H0.304V10.248H13.2V14.488H9.456V29H4.048ZM19.8829 22.76V29H14.5709V10.248H16.6829C17.1949 10.248 17.9575 10.2267 18.9709 10.184C19.9842 10.1307 20.8215 10.104 21.4829 10.104C23.7869 10.104 25.5042 10.6107 26.6349 11.624C27.7762 12.6373 28.3469 14.1893 28.3469 16.28C28.3469 17.5173 28.0749 18.616 27.5309 19.576C26.9975 20.536 26.2882 21.2987 25.4029 21.864C25.8829 21.9813 26.2935 22.2533 26.6349 22.68C26.9869 23.1067 27.2589 23.6133 27.4509 24.2C27.6429 24.776 27.8082 25.3627 27.9469 25.96C28.0962 26.5467 28.2615 27.128 28.4429 27.704C28.6349 28.28 28.8429 28.712 29.0669 29H23.1629C23.0455 28.8507 22.9549 28.4347 22.8909 27.752C22.8269 27.0587 22.7362 26.232 22.6189 25.272C22.5122 24.3013 22.3575 23.4907 22.1549 22.84C22.1335 22.84 22.1069 22.84 22.0749 22.84C21.8722 22.84 21.6535 22.84 21.4189 22.84C21.1949 22.8293 20.9975 22.8187 20.8269 22.808C20.6562 22.7973 20.4749 22.7867 20.2829 22.776C20.1015 22.7653 19.9682 22.76 19.8829 22.76ZM19.8829 19.784H20.3949C20.6615 19.784 20.8855 19.7733 21.0669 19.752C21.2482 19.7307 21.4455 19.6933 21.6589 19.64C21.8829 19.576 22.0642 19.48 22.2029 19.352C22.3522 19.224 22.4909 19.0587 22.6189 18.856C22.7469 18.6533 22.8429 18.392 22.9069 18.072C22.9709 17.752 23.0029 17.3787 23.0029 16.952V15.688C23.0029 14.76 22.7575 14.1147 22.2669 13.752C21.7869 13.3787 21.0935 13.192 20.1869 13.192H19.8829V19.784ZM41.4316 29H30.0876V10.248H41.1916L40.8716 14.024L35.3836 13.864V17.48H39.7036V21.224L35.3836 20.904V25.16L41.4316 25V29ZM54.2285 29H42.8845V10.248H53.9885L53.6685 14.024L48.1805 13.864V17.48H52.5005V21.224L48.1805 20.904V25.16L54.2285 25V29ZM61.0254 29H55.8574V18.648L54.8974 18.056V16.344L58.3374 15.4H61.0574V17.464C61.1107 17.3893 61.1854 17.2933 61.2814 17.176C61.388 17.048 61.58 16.8507 61.8574 16.584C62.1347 16.3173 62.4174 16.0827 62.7054 15.88C63.004 15.6773 63.3614 15.496 63.7774 15.336C64.204 15.1653 64.6254 15.08 65.0414 15.08C66.108 15.08 66.924 15.2827 67.4894 15.688C68.0547 16.0933 68.4547 16.7547 68.6894 17.672C69.052 17.0427 69.6067 16.456 70.3534 15.912C71.1107 15.3573 71.9427 15.08 72.8494 15.08C73.852 15.08 74.6307 15.256 75.1854 15.608C75.7507 15.9493 76.1614 16.536 76.4174 17.368C76.6734 18.2 76.8014 19.3733 76.8014 20.888V29H71.6014V20.424C71.6014 19.9547 71.4894 19.5867 71.2654 19.32C71.0414 19.0533 70.7 18.92 70.2414 18.92C69.932 18.92 69.5107 19.176 68.9774 19.688C69.0094 20.2 69.0254 20.7547 69.0254 21.352V29H63.7454V20.424C63.7774 19.4213 63.3507 18.92 62.4654 18.92C62.4014 18.92 62.3374 18.9253 62.2734 18.936C62.22 18.9467 62.1667 18.9573 62.1134 18.968C62.0707 18.9787 62.0174 19 61.9534 19.032C61.9 19.0533 61.852 19.0747 61.8094 19.096C61.7667 19.1067 61.7187 19.1333 61.6654 19.176C61.612 19.208 61.5694 19.2347 61.5374 19.256C61.5054 19.2773 61.4574 19.3147 61.3934 19.368C61.34 19.4107 61.2974 19.4427 61.2654 19.464C61.244 19.4853 61.2014 19.5227 61.1374 19.576C61.084 19.6187 61.0467 19.6507 61.0254 19.672V29ZM103.26 29H98.0918V18.648L97.1318 18.056V16.344L100.572 15.4H103.292V17.464L103.484 17.224C103.612 17.0533 103.798 16.8507 104.044 16.616C104.3 16.3813 104.582 16.152 104.892 15.928C105.201 15.6933 105.569 15.496 105.996 15.336C106.433 15.1653 106.86 15.08 107.276 15.08C108.737 15.08 109.766 15.48 110.364 16.28C110.972 17.08 111.276 18.4187 111.276 20.296C111.276 20.36 111.276 20.456 111.276 20.584C111.265 20.712 111.26 20.8133 111.26 20.888V29H105.98V20.424C106.012 19.4213 105.585 18.92 104.7 18.92C104.636 18.92 104.572 18.9253 104.508 18.936C104.454 18.9467 104.401 18.9573 104.348 18.968C104.305 18.9787 104.252 19 104.188 19.032C104.134 19.0533 104.086 19.0747 104.044 19.096C104.001 19.1067 103.953 19.1333 103.9 19.176C103.846 19.208 103.804 19.2347 103.772 19.256C103.74 19.2773 103.692 19.3147 103.628 19.368C103.574 19.4107 103.532 19.4427 103.5 19.464C103.478 19.4853 103.436 19.5227 103.372 19.576C103.318 19.6187 103.281 19.6507 103.26 19.672V29ZM113.279 29V18.648L112.319 18.056V16.344L115.759 15.4H118.431V29H113.279ZM115.599 13.928L112.975 11.288V10.728L115.599 8.104H116.207L118.943 10.728V11.288L116.207 13.928H115.599ZM127.551 27.576L127.391 27.752C127.284 27.88 127.119 28.0293 126.895 28.2C126.681 28.3707 126.431 28.5413 126.143 28.712C125.865 28.8827 125.524 29.0267 125.119 29.144C124.713 29.272 124.297 29.336 123.871 29.336C120.991 29.336 119.551 27.912 119.551 25.064C119.551 24.5093 119.652 24.0027 119.855 23.544C120.057 23.0747 120.319 22.68 120.639 22.36C120.959 22.04 121.343 21.7573 121.791 21.512C122.239 21.256 122.687 21.0587 123.135 20.92C123.593 20.7707 124.073 20.648 124.575 20.552C125.076 20.456 125.524 20.392 125.919 20.36C126.313 20.328 126.692 20.312 127.055 20.312V20.024C127.055 19.3733 126.879 18.9147 126.527 18.648C126.185 18.3813 125.631 18.248 124.863 18.248C124.201 18.248 123.513 18.328 122.799 18.488C122.084 18.6373 121.524 18.8187 121.119 19.032L120.095 16.856C120.82 16.3867 121.764 15.976 122.927 15.624C124.089 15.2613 125.273 15.08 126.479 15.08C127.545 15.08 128.425 15.1867 129.119 15.4C129.812 15.6027 130.372 15.9547 130.799 16.456C131.236 16.9467 131.545 17.576 131.727 18.344C131.908 19.1013 131.999 20.0667 131.999 21.24V27.752L132.447 29H128.063L127.551 27.576ZM126.287 26.52C126.425 26.52 126.553 26.4933 126.671 26.44C126.799 26.376 126.895 26.3173 126.959 26.264C127.023 26.2 127.055 26.168 127.055 26.168V22.328C126.404 22.328 125.887 22.5093 125.503 22.872C125.119 23.224 124.927 23.7733 124.927 24.52C124.927 25.8533 125.38 26.52 126.287 26.52Z" fill="#294B29"/>
<path d="M89.7081 16.8125H84.3444C84.2649 16.8126 84.1869 16.7911 84.1187 16.7502C84.0506 16.7093 83.9948 16.6507 83.9575 16.5805C83.9202 16.5103 83.9026 16.4313 83.9068 16.3519C83.911 16.2726 83.9367 16.1958 83.9813 16.13L86.6631 12.1094C86.7032 12.0498 86.7572 12.001 86.8205 11.9673C86.8839 11.9335 86.9545 11.9159 87.0263 11.9159C87.098 11.9159 87.1687 11.9335 87.232 11.9673C87.2953 12.001 87.3494 12.0498 87.3894 12.1094L90.0625 16.1387C90.1043 16.2039 90.1281 16.2789 90.1315 16.3562C90.1349 16.4335 90.1176 16.5104 90.0816 16.5789C90.0456 16.6474 89.992 16.7051 89.9264 16.7461C89.8608 16.7872 89.7855 16.8101 89.7081 16.8125Z" fill="#CFF09E"/>
<path d="M88.6756 16.8125H85.3813L80.7219 21.7694C80.6655 21.8319 80.6283 21.9093 80.6148 21.9924C80.6013 22.0754 80.612 22.1606 80.6458 22.2378C80.6795 22.3149 80.7347 22.3807 80.8049 22.4272C80.875 22.4737 80.9571 22.499 81.0413 22.5H93.0156C93.1015 22.5005 93.1856 22.4758 93.2575 22.4288C93.3294 22.3819 93.3859 22.3148 93.42 22.236C93.454 22.1572 93.4641 22.0701 93.449 21.9855C93.4339 21.901 93.3943 21.8228 93.335 21.7606L88.6756 16.8125Z" fill="#A8DBA8"/>
<path d="M90.4738 22.5H83.5831L78.4731 28.345C78.4201 28.4086 78.3863 28.486 78.3755 28.5682C78.3647 28.6503 78.3775 28.7338 78.4123 28.809C78.4472 28.8841 78.5026 28.9479 78.5722 28.9927C78.6419 29.0376 78.7228 29.0618 78.8056 29.0625H95.2513C95.3353 29.0624 95.4176 29.0381 95.4882 28.9924C95.5588 28.9468 95.6148 28.8818 95.6494 28.8051C95.684 28.7285 95.6958 28.6435 95.6834 28.5604C95.671 28.4772 95.6349 28.3994 95.5794 28.3363L90.4738 22.5Z" fill="#79BD9A"/>
<path d="M88.7762 29.0713H85.2762V31.6963H88.7762V29.0713Z" fill="#A8DBA8"/>
<path d="M95.9075 28.0562L91.4362 22.9375H93.0156C93.1861 22.9369 93.3527 22.8865 93.495 22.7925C93.6372 22.6985 93.7489 22.565 93.8163 22.4083C93.8837 22.2517 93.9038 22.0788 93.8743 21.9109C93.8448 21.743 93.7668 21.5873 93.65 21.4631L89.6862 17.25C89.8492 17.2603 90.0118 17.2247 90.1556 17.1474C90.2994 17.0701 90.4187 16.9541 90.5 16.8125C90.5744 16.673 90.6096 16.5159 90.6019 16.358C90.5942 16.2001 90.5439 16.0472 90.4562 15.9156L87.4812 11.4575V10.9806L88.3825 11.4575C88.4467 11.4883 88.5169 11.5047 88.5881 11.5056C88.6524 11.5066 88.7161 11.4933 88.7747 11.4668C88.8333 11.4404 88.8853 11.4013 88.9271 11.3524C88.9688 11.3036 88.9993 11.2461 89.0164 11.1841C89.0334 11.1221 89.0366 11.0571 89.0256 10.9937L88.75 9.50187L89.835 8.4475C89.8912 8.39138 89.9311 8.321 89.9504 8.24393C89.9697 8.16685 89.9676 8.08598 89.9444 8.01C89.9197 7.93143 89.8734 7.86142 89.8107 7.80801C89.748 7.75461 89.6715 7.71999 89.59 7.70812L88.0937 7.49375L87.4375 6.12875C87.4017 6.05478 87.3457 5.9924 87.2761 5.94875C87.2065 5.9051 87.1259 5.88195 87.0437 5.88195C86.9616 5.88195 86.881 5.9051 86.8114 5.94875C86.7418 5.9924 86.6858 6.05478 86.65 6.12875L85.9806 7.485L84.4844 7.69937C84.4029 7.71124 84.3264 7.74586 84.2637 7.79927C84.201 7.85267 84.1547 7.92268 84.13 8.00125C84.1073 8.07762 84.1059 8.15873 84.126 8.23583C84.146 8.31293 84.1868 8.38309 84.2437 8.43875L85.3244 9.49312L85.0706 10.985C85.055 11.067 85.0632 11.1518 85.0942 11.2293C85.1252 11.3068 85.1777 11.3739 85.2456 11.4225C85.3114 11.4705 85.3892 11.4992 85.4703 11.5054C85.5515 11.5115 85.6327 11.495 85.705 11.4575L86.6062 10.9806V11.44L83.6181 15.8981C83.5326 16.0297 83.484 16.1818 83.4775 16.3385C83.4709 16.4953 83.5067 16.6509 83.5809 16.7891C83.6552 16.9273 83.7652 17.043 83.8995 17.1241C84.0338 17.2052 84.1875 17.2487 84.3444 17.25H84.375L80.4112 21.4631C80.2947 21.5871 80.2168 21.7423 80.1871 21.9098C80.1574 22.0773 80.1772 22.2499 80.2441 22.4063C80.3109 22.5628 80.4219 22.6964 80.5635 22.7907C80.7051 22.885 80.8711 22.9361 81.0412 22.9375H82.625L79.4487 26.5687L78.1362 28.0475C78.0247 28.1741 77.9521 28.3302 77.9273 28.4971C77.9025 28.664 77.9264 28.8345 77.9962 28.9881C78.0668 29.1429 78.1809 29.2737 78.3247 29.3646C78.4684 29.4555 78.6356 29.5026 78.8056 29.5H84.8387V31.6875C84.8387 31.8035 84.8848 31.9148 84.9669 31.9969C85.0489 32.0789 85.1602 32.125 85.2762 32.125H88.7762C88.8923 32.125 89.0036 32.0789 89.0856 31.9969C89.1677 31.9148 89.2137 31.8035 89.2137 31.6875V29.5H95.2512C95.4194 29.4998 95.5839 29.4511 95.7252 29.3598C95.8664 29.2686 95.9783 29.1385 96.0475 28.9853C96.1168 28.832 96.1404 28.6621 96.1155 28.4958C96.0907 28.3295 96.0185 28.1738 95.9075 28.0475V28.0562ZM88.2294 25.6325L88.1112 25.6588C86.829 25.9899 85.5249 26.2297 84.2087 26.3762C84.1625 26.3676 84.115 26.3676 84.0687 26.3762C83.2649 26.4583 82.4573 26.4977 81.6494 26.4944C81.5958 26.4856 81.5411 26.4856 81.4875 26.4944C81.2206 26.4944 80.9581 26.4944 80.6956 26.4944L83.2725 23.55C83.5831 23.6594 83.8894 23.76 84.2044 23.8606L83.675 24.3856C83.634 24.4263 83.6014 24.4747 83.5792 24.528C83.557 24.5813 83.5456 24.6385 83.5456 24.6962C83.5456 24.754 83.557 24.8112 83.5792 24.8645C83.6014 24.9178 83.634 24.9662 83.675 25.0069C83.7159 25.0474 83.7644 25.0795 83.8177 25.1013C83.871 25.123 83.928 25.1341 83.9856 25.1337C84.0432 25.1341 84.1003 25.123 84.1536 25.1013C84.2069 25.0795 84.2554 25.0474 84.2962 25.0069L85.1712 24.1319C85.5081 24.2237 85.8494 24.3113 86.1862 24.3944V24.6875C86.1862 24.8035 86.2323 24.9148 86.3144 24.9969C86.3964 25.0789 86.5077 25.125 86.6237 25.125C86.7398 25.125 86.8511 25.0789 86.9331 24.9969C87.0152 24.9148 87.0612 24.8035 87.0612 24.6875V24.6C88.1013 24.8099 89.1533 24.956 90.2112 25.0375L89.8394 25.16C89.2794 25.3438 88.75 25.4969 88.2294 25.6325ZM91.4144 24.25C89.8413 24.1965 88.2769 23.9943 86.7419 23.6462C86.7052 23.6329 86.667 23.6241 86.6281 23.62C86.1644 23.515 85.6962 23.3969 85.2325 23.2612H85.1625L85.0925 23.2394C84.795 23.1519 84.4931 23.06 84.1956 22.9637H90.2725L91.4144 24.25ZM88.75 18.9256C88.7082 18.9168 88.6649 18.9168 88.6231 18.9256C87.5316 19.0241 86.4334 19.0241 85.3419 18.9256C85.307 18.9214 85.2717 18.9214 85.2369 18.9256C84.8694 18.8906 84.5062 18.8425 84.1475 18.7812L85.5694 17.25H88.4831L89.9094 18.7637C89.5287 18.8381 89.1394 18.8862 88.75 18.9256ZM85.88 14.0781L87.0262 12.3587L88.1725 14.0781C87.4164 14.2356 86.6361 14.2356 85.88 14.0781ZM86.0856 9.03812L85.4687 8.43875L86.3175 8.31625C86.3897 8.30508 86.458 8.27601 86.516 8.23168C86.5741 8.18736 86.6202 8.12919 86.65 8.0625L87.0262 7.29687L87.4069 8.0625C87.438 8.12619 87.4841 8.18136 87.5413 8.22328C87.5984 8.26519 87.6649 8.2926 87.735 8.30312L88.5837 8.42562L87.9712 9.025C87.9206 9.07418 87.8826 9.13488 87.8605 9.20192C87.8384 9.26896 87.8329 9.34035 87.8444 9.41L87.9887 10.25L87.2319 9.85187H87.2012H87.1531H86.9431H86.895H86.8687L86.0637 10.25L86.2081 9.40562C86.2173 9.33907 86.211 9.27131 86.1898 9.20758C86.1685 9.14385 86.1329 9.08586 86.0856 9.03812ZM85.3637 14.8525C85.7641 14.9613 86.1746 15.0287 86.5887 15.0537V15.4912C86.5887 15.6073 86.6348 15.7186 86.7169 15.8006C86.7989 15.8827 86.9102 15.9287 87.0262 15.9287C87.1423 15.9287 87.2536 15.8827 87.3356 15.8006C87.4177 15.7186 87.4637 15.6073 87.4637 15.4912V15.0625C87.8794 15.0378 88.2913 14.9704 88.6931 14.8612L89.7125 16.375H84.3444L85.3637 14.8525ZM83.43 19.5294C83.7887 19.6052 84.1519 19.6665 84.5194 19.7131L84.2875 20.0937C84.2575 20.1433 84.2377 20.1984 84.2292 20.2557C84.2206 20.313 84.2236 20.3715 84.2378 20.4276C84.2521 20.4838 84.2773 20.5366 84.3121 20.5829C84.347 20.6292 84.3906 20.6682 84.4406 20.6975C84.5086 20.7364 84.5854 20.7575 84.6637 20.7587C84.7397 20.7587 84.8143 20.739 84.8803 20.7014C84.9462 20.6638 85.0013 20.6097 85.04 20.5444L85.4775 19.8181C85.845 19.8487 86.2169 19.8706 86.5931 19.8794V20.3169C86.5931 20.4329 86.6392 20.5442 86.7213 20.6262C86.8033 20.7083 86.9146 20.7544 87.0306 20.7544C87.1467 20.7544 87.2579 20.7083 87.34 20.6262C87.422 20.5442 87.4681 20.4329 87.4681 20.3169V19.875C87.8181 19.875 88.1637 19.8487 88.5094 19.8225L88.9994 20.5575C89.0313 20.6055 89.0723 20.6467 89.1201 20.6788C89.1679 20.7109 89.2216 20.7333 89.2781 20.7447C89.3345 20.7561 89.3927 20.7562 89.4492 20.7451C89.5057 20.734 89.5595 20.7119 89.6075 20.68C89.6555 20.6481 89.6967 20.6071 89.7288 20.5593C89.7609 20.5115 89.7833 20.4578 89.7947 20.4013C89.8061 20.3448 89.8062 20.2867 89.7951 20.2302C89.784 20.1736 89.7619 20.1198 89.73 20.0719L89.4894 19.7175C89.8744 19.665 90.255 19.5994 90.6269 19.525L93.0156 22.0625H81.0412L83.43 19.5294ZM88.3387 31.25H85.7137V29.5H88.3387V31.25ZM78.8056 28.625L79.9519 27.3125C80.2887 27.3387 80.6344 27.3606 80.9844 27.3737L80.9144 27.645C80.8986 27.7016 80.8945 27.7608 80.9021 27.8191C80.9098 27.8773 80.9291 27.9334 80.9589 27.984C80.9887 28.0347 81.0284 28.0788 81.0756 28.1137C81.1228 28.1487 81.1766 28.1738 81.2337 28.1875H81.3387C81.4387 28.1904 81.5366 28.159 81.6162 28.0985C81.6958 28.038 81.7523 27.9521 81.7762 27.855L81.8944 27.3825C82.5331 27.3825 83.185 27.3475 83.85 27.2862L83.99 27.855C84.014 27.9521 84.0704 28.038 84.15 28.0985C84.2296 28.159 84.3276 28.1904 84.4275 28.1875H84.5325C84.6387 28.1514 84.727 28.0759 84.7791 27.9765C84.8312 27.8772 84.8431 27.7617 84.8125 27.6537L84.6987 27.2162C85.8105 27.0747 86.9133 26.8702 88.0019 26.6038L88.3562 27.4788C88.3887 27.5602 88.4448 27.6299 88.5173 27.6791C88.5899 27.7282 88.6755 27.7545 88.7631 27.7544C88.8186 27.7552 88.8737 27.7448 88.925 27.7237C88.9785 27.7025 89.0272 27.671 89.0685 27.6309C89.1097 27.5908 89.1427 27.543 89.1654 27.4902C89.1882 27.4374 89.2003 27.3806 89.2011 27.323C89.2019 27.2655 89.1913 27.2084 89.17 27.155L88.855 26.3631C89.2531 26.2537 89.6556 26.1356 90.0537 26.0087C90.3162 25.9256 90.5787 25.8381 90.8369 25.7462L90.9769 26.1444C91.006 26.2306 91.0612 26.3055 91.1349 26.3589C91.2087 26.4122 91.2971 26.4412 91.3881 26.4419C91.4374 26.4413 91.4862 26.4324 91.5325 26.4156C91.6427 26.3796 91.7341 26.3013 91.7866 26.1979C91.839 26.0946 91.8484 25.9746 91.8125 25.8644L91.6725 25.4531L92.25 25.2256L95.2512 28.625H78.8056Z" fill="#3B8686"/>
</svg>
