<svg width="100" height="100" viewBox="0 0 100 100" fill="none" xmlns="http://www.w3.org/2000/svg">
<path d="M50 5C41.0998 5 32.3995 7.6392 24.9993 12.5839C17.5991 17.5285 11.8314 24.5566 8.42541 32.7793C5.01947 41.0019 4.12832 50.0499 5.86465 58.7791C7.60099 67.5082 11.8868 75.5265 18.1802 81.8198C24.4735 88.1132 32.4918 92.399 41.2209 94.1353C49.9501 95.8717 58.9981 94.9805 67.2208 91.5746C75.4434 88.1686 82.4715 82.4009 87.4161 75.0007C92.3608 67.6005 95 58.9002 95 50C94.9998 38.0653 90.2587 26.6195 81.8196 18.1804C73.3805 9.74126 61.9347 5.00015 50 5ZM50 93C40.0517 93.0001 30.4111 89.5507 22.7208 83.2395C15.0306 76.9284 9.76665 68.1461 7.82578 58.3889C5.88491 48.6317 7.38726 38.5034 12.0769 29.7297C16.7664 20.9561 24.3531 14.0799 33.5442 10.2728C42.7352 6.46567 52.962 5.96324 62.482 8.85107C72.002 11.7389 80.2261 17.8383 85.7531 26.1101C91.2801 34.3818 93.7681 44.3141 92.7929 54.2145C91.8178 64.1149 87.4401 73.371 80.4055 80.4055C76.4172 84.4046 71.6778 87.576 66.4597 89.7374C61.2417 91.8988 55.6479 93.0076 50 93Z" fill="black"/>
<path d="M69.7835 47.7636L40.9675 29.4047C40.5583 29.1415 40.0822 29.0011 39.5956 29.0001C38.9176 29.0026 38.2676 29.271 37.7855 29.7476C37.5349 29.9949 37.3364 30.2899 37.2015 30.615C37.0666 30.9402 36.9981 31.2891 37 31.6411V68.3589C36.9981 68.7109 37.0666 69.0598 37.2015 69.3849C37.3364 69.7101 37.5349 70.005 37.7855 70.2523C38.2676 70.729 38.9176 70.9974 39.5956 70.9999C40.0822 70.9988 40.5583 70.8584 40.9675 70.5953L69.7835 52.2365C70.1568 51.9949 70.4638 51.6636 70.6763 51.273C70.8888 50.8823 71.0001 50.4447 71.0001 50C71.0001 49.5553 70.8888 49.1177 70.6763 48.727C70.4638 48.3364 70.1568 48.0051 69.7835 47.7636ZM68.7087 50.5497L39.8928 68.9086C39.8048 68.9675 39.7015 68.9992 39.5956 68.9999C39.4423 68.9971 39.2961 68.9349 39.1878 68.8263C39.1262 68.7654 39.0778 68.6925 39.0455 68.6121C39.0132 68.5317 38.9977 68.4455 39 68.3589V31.6411C38.9977 31.5545 39.0132 31.4683 39.0455 31.3879C39.0778 31.3075 39.1262 31.2346 39.1878 31.1737C39.2961 31.0651 39.4423 31.0029 39.5956 31.0001C39.7015 31.0008 39.8048 31.0325 39.8928 31.0914L68.7087 49.4503C68.7985 49.5112 68.872 49.5931 68.9228 49.689C68.9736 49.7848 69.0001 49.8916 69.0001 50C69.0001 50.1085 68.9736 50.2153 68.9228 50.3111C68.872 50.4069 68.7985 50.4889 68.7087 50.5497Z" fill="black"/>
</svg>
